
<svg id="visual" viewBox="0 0 1400 100" width="1400" height="100" xmlns="http://www.w3.org/2000/svg" xmlns:xlink="http://www.w3.org/1999/xlink" version="1.1"><path d="M0 34L29.2 28.3C58.3 22.7 116.7 11.3 175 19.2C233.3 27 291.7 54 350 58.2C408.3 62.3 466.7 43.7 525 45.7C583.3 47.7 641.7 70.3 700 69.5C758.3 68.7 816.7 44.3 875 35.2C933.3 26 991.7 32 1050 44.5C1108.3 57 1166.7 76 1225 78.8C1283.3 81.7 1341.7 68.3 1370.8 61.7L1400 55L1400 101L1370.8 101C1341.7 101 1283.3 101 1225 101C1166.7 101 1108.3 101 1050 101C991.7 101 933.3 101 875 101C816.7 101 758.3 101 700 101C641.7 101 583.3 101 525 101C466.7 101 408.3 101 350 101C291.7 101 233.3 101 175 101C116.7 101 58.3 101 29.2 101L0 101Z" fill="#AFDFEF" stroke-linecap="round" stroke-linejoin="miter"></path></svg>